<?xml version="1.0" encoding="UTF-8"?>
<svg xmlns="http://www.w3.org/2000/svg" viewBox="0 0 900 320">
  <defs>
    <style>
      .bg { fill: #0d1117; }
      .box { fill: #161b22; stroke: #30363d; stroke-width: 1; }
      .box-hl { fill: #1f2937; stroke: #58a6ff; stroke-width: 2; }
      .txt { font-family: -apple-system, BlinkMacSystemFont, Helvetica, Arial, sans-serif; }
      .mono { font-family: ui-monospace, Menlo, Consolas, monospace; }
      .title { fill: #e6edf3; font-weight: 600; }
      .sub { fill: #7d8590; }
      .cmd { fill: #58a6ff; }
      .arr { fill: none; stroke: #30363d; stroke-width: 2; }
      .arr-h { fill: #30363d; }
      .grn { fill: #3fb950; }
      .ylw { fill: #d29922; }
      .pur { fill: #a371f7; }
    </style>
  </defs>

  <rect class="bg" width="900" height="320" rx="12" ry="12"/>

  <rect class="box-hl" x="20" y="40" width="140" height="100" rx="8" ry="8"/>
  <text class="mono cmd" font-size="14" x="90" y="70" text-anchor="middle">/tk:map</text>
  <text class="txt sub" font-size="11" x="90" y="95" text-anchor="middle">Create context</text>
  <text class="txt sub" font-size="11" x="90" y="115" text-anchor="middle">AGENTS.md</text>
  <text class="txt title" font-size="10" x="90" y="132" text-anchor="middle">RUN FIRST</text>

  <path class="arr" d="M 165 90 L 195 90"/>
  <polygon class="arr-h" points="195,85 205,90 195,95"/>

  <rect class="box" x="210" y="40" width="140" height="100" rx="8" ry="8"/>
  <text class="mono cmd" font-size="14" x="280" y="70" text-anchor="middle">/tk:build</text>
  <text class="txt sub" font-size="11" x="280" y="95" text-anchor="middle">7-phase workflow</text>
  <text class="txt sub" font-size="11" x="280" y="115" text-anchor="middle">Explore, Design</text>
  <text class="txt sub" font-size="11" x="280" y="132" text-anchor="middle">Build, Review</text>

  <path class="arr" d="M 355 90 L 385 90"/>
  <polygon class="arr-h" points="385,85 395,90 385,95"/>

  <rect class="box" x="400" y="40" width="140" height="100" rx="8" ry="8"/>
  <text class="mono cmd" font-size="14" x="470" y="70" text-anchor="middle">/tk:qa</text>
  <text class="txt sub" font-size="11" x="470" y="95" text-anchor="middle">Test + Security</text>
  <text class="txt sub" font-size="11" x="470" y="115" text-anchor="middle">6 specialists</text>
  <text class="txt sub" font-size="11" x="470" y="132" text-anchor="middle">Vuln scanning</text>

  <path class="arr" d="M 545 90 L 575 90"/>
  <polygon class="arr-h" points="575,85 585,90 575,95"/>

  <rect class="box" x="590" y="40" width="140" height="100" rx="8" ry="8"/>
  <text class="mono cmd" font-size="14" x="660" y="70" text-anchor="middle">/tk:deploy</text>
  <text class="txt sub" font-size="11" x="660" y="95" text-anchor="middle">Pre-flight checks</text>
  <text class="txt sub" font-size="11" x="660" y="115" text-anchor="middle">Deploy + verify</text>
  <text class="txt sub" font-size="11" x="660" y="132" text-anchor="middle">Auto-rollback</text>

  <rect class="box" x="760" y="55" width="120" height="70" rx="8" ry="8" stroke="#3fb950"/>
  <text class="txt grn" font-size="24" x="820" y="85" text-anchor="middle">OK</text>
  <text class="txt sub" font-size="11" x="820" y="110" text-anchor="middle">Production</text>

  <rect class="box" x="20" y="180" width="120" height="70" rx="8" ry="8"/>
  <text class="mono cmd" font-size="12" x="80" y="205" text-anchor="middle">/tk:debug</text>
  <text class="txt sub" font-size="10" x="80" y="225" text-anchor="middle">Fix problems</text>
  <text class="txt sub" font-size="10" x="80" y="240" text-anchor="middle">4 investigators</text>

  <rect class="box" x="160" y="180" width="120" height="70" rx="8" ry="8"/>
  <text class="mono cmd" font-size="12" x="220" y="205" text-anchor="middle">/tk:review</text>
  <text class="txt sub" font-size="10" x="220" y="225" text-anchor="middle">Code review</text>
  <text class="txt sub" font-size="10" x="220" y="240" text-anchor="middle">4 reviewers</text>

  <rect class="box" x="300" y="180" width="120" height="70" rx="8" ry="8"/>
  <text class="mono cmd" font-size="12" x="360" y="205" text-anchor="middle">/tk:design</text>
  <text class="txt sub" font-size="10" x="360" y="225" text-anchor="middle">Frontend UI</text>
  <text class="txt sub" font-size="10" x="360" y="240" text-anchor="middle">No AI slop</text>

  <rect class="box" x="440" y="180" width="120" height="70" rx="8" ry="8"/>
  <text class="mono cmd" font-size="12" x="500" y="205" text-anchor="middle">/tk:clean</text>
  <text class="txt sub" font-size="10" x="500" y="225" text-anchor="middle">Cleanup code</text>
  <text class="txt sub" font-size="10" x="500" y="240" text-anchor="middle">4 cleaners</text>

  <rect class="box" x="580" y="180" width="120" height="70" rx="8" ry="8"/>
  <text class="mono cmd" font-size="12" x="640" y="205" text-anchor="middle">/tk:doc</text>
  <text class="txt sub" font-size="10" x="640" y="225" text-anchor="middle">Documentation</text>
  <text class="txt sub" font-size="10" x="640" y="240" text-anchor="middle">4 generators</text>

  <rect class="box" x="720" y="180" width="160" height="70" rx="8" ry="8"/>
  <text class="mono cmd" font-size="12" x="800" y="205" text-anchor="middle">/tk:opinion</text>
  <text class="txt sub" font-size="10" x="800" y="225" text-anchor="middle">Project audit</text>
  <text class="txt sub" font-size="10" x="800" y="240" text-anchor="middle">Honest feedback</text>

  <text class="txt sub" font-size="11" x="30" y="290">Modes:</text>
  <circle class="grn" cx="90" cy="286" r="5"/>
  <text class="txt sub" font-size="11" x="100" y="290">light (fast)</text>
  <circle class="ylw" cx="200" cy="286" r="5"/>
  <text class="txt sub" font-size="11" x="210" y="290">medium (balanced)</text>
  <circle class="pur" cx="340" cy="286" r="5"/>
  <text class="txt sub" font-size="11" x="350" y="290">heavy (parallel SubAgents)</text>
</svg>
